<svg width="186" height="186" viewBox="0 0 186 186" fill="none" xmlns="http://www.w3.org/2000/svg">
<g filter="url(#filter0_d)">
<mask id="path-1-inside-1" fill="white">
<path d="M45.6514 76.858C45.6514 54.3251 63.9179 36.0585 86.4508 36.0585H99.2007C121.734 36.0585 140 54.3251 140 76.858V90.53C140 113.063 121.734 131.33 99.2007 131.33H86.4508C63.9179 131.33 45.6514 113.063 45.6514 90.53V76.858Z"/>
</mask>
<path d="M45.6514 76.858C45.6514 54.3251 63.9179 36.0585 86.4508 36.0585H99.2007C121.734 36.0585 140 54.3251 140 76.858V90.53C140 113.063 121.734 131.33 99.2007 131.33H86.4508C63.9179 131.33 45.6514 113.063 45.6514 90.53V76.858Z" fill="white"/>
<path d="M86.4508 41.4071H99.2007V30.71H86.4508V41.4071ZM134.652 76.858V90.53H145.349V76.858H134.652ZM99.2007 125.981H86.4508V136.678H99.2007V125.981ZM50.9999 90.53V76.858H40.3028V90.53H50.9999ZM86.4508 125.981C66.8718 125.981 50.9999 110.109 50.9999 90.53H40.3028C40.3028 116.017 60.964 136.678 86.4508 136.678V125.981ZM134.652 90.53C134.652 110.109 118.78 125.981 99.2007 125.981V136.678C124.688 136.678 145.349 116.017 145.349 90.53H134.652ZM99.2007 41.4071C118.78 41.4071 134.652 57.279 134.652 76.858H145.349C145.349 51.3711 124.688 30.71 99.2007 30.71V41.4071ZM86.4508 30.71C60.964 30.71 40.3028 51.3711 40.3028 76.858H50.9999C50.9999 57.279 66.8718 41.4071 86.4508 41.4071V30.71Z" fill="url(#paint0_radial)" mask="url(#path-1-inside-1)"/>
</g>
<path d="M108.403 78.2838C112.296 80.5313 112.296 86.1501 108.403 88.3976L90.8857 98.5114C86.9928 100.759 82.1268 97.9495 82.1268 93.4545L82.1268 73.2269C82.1268 68.7318 86.9928 65.9224 90.8856 68.17L108.403 78.2838Z" fill="#FFC012"/>
<defs>
<filter id="filter0_d" x="0.536213" y="0.0565815" width="184.579" height="185.501" filterUnits="userSpaceOnUse" color-interpolation-filters="sRGB">
<feFlood flood-opacity="0" result="BackgroundImageFix"/>
<feColorMatrix in="SourceAlpha" type="matrix" values="0 0 0 0 0 0 0 0 0 0 0 0 0 0 0 0 0 0 127 0"/>
<feOffset dy="9.11323"/>
<feGaussianBlur stdDeviation="22.5576"/>
<feColorMatrix type="matrix" values="0 0 0 0 0.783333 0 0 0 0 0.590503 0 0 0 0 0.0946528 0 0 0 1 0"/>
<feBlend mode="normal" in2="BackgroundImageFix" result="effect1_dropShadow"/>
<feBlend mode="normal" in="SourceGraphic" in2="effect1_dropShadow" result="shape"/>
</filter>
<radialGradient id="paint0_radial" cx="0" cy="0" r="1" gradientUnits="userSpaceOnUse" gradientTransform="translate(86.2656 78.5335) rotate(8.26648) scale(54.2987 154.215)">
<stop stop-color="#FFE141"/>
<stop offset="1" stop-color="#FFBB0B"/>
</radialGradient>
</defs>
</svg>
